<?xml version="1.0" encoding="utf-8"?>
<!-- Generator: Adobe Illustrator 24.0.2, SVG Export Plug-In . SVG Version: 6.00 Build 0)  -->
<svg version="1.1" id="Layer_1" xmlns="http://www.w3.org/2000/svg" xmlns:xlink="http://www.w3.org/1999/xlink" x="0px" y="0px"
	 viewBox="0 0 512 512" style="enable-background:new 0 0 512 512;" xml:space="preserve">
<style type="text/css">
	.st0{fill:#C1E8F7;}
	.st1{fill:#906A5D;}
	.st2{fill:#F4CCAF;}
	.st3{fill:#0E789C;}
	.st4{fill:#216988;}
	.st5{fill:#FCD4B5;}
	.st6{fill:#021A21;}
	.st7{fill:#E0E0E0;}
	.st8{fill:#1D6182;}
</style>
<circle id="XMLID_8252_" class="st0" cx="256.0887" cy="255.7101" r="250"/>
<g id="XMLID_6625_">
	<path id="XMLID_6645_" class="st1" d="M316.6912,229.1404c-3.6288-2.5923-3.4991,34.083-18.5321,48.5978
		c-1.0792,1.0421-2.1811,2.0603-3.3076,3.0496c-0.8848,0.7789-1.8332,1.4815-2.7499,2.222
		c0.029,6.978,0.7298,16.9365,5.3523,26.6644c4.9757,1.9458,12.0533,7.0721,15.6546,15.326
		c0.4948,0.2651,1.0257,0.5119,1.5993,0.7335c0.6108,0.2379,1.5086,0.5774,2.6239,0.9948c0.0227-0.1654,0.0673-0.3904,0.0844-0.5394
		l5.5847,1.8172c-0.0245,0.216-0.087,0.5372-0.1234,0.7859c2.2982,0.8532,4.9474,1.8354,7.8457,2.9117
		c-4.0363-19.218-1.7674-68.7507-2.1893-108.4251l-1.3476,0.2833C324.6562,228.7828,321.1003,232.1012,316.6912,229.1404z"/>
	<path id="XMLID_6644_" class="st1" d="M191.2207,328.0063l5.5835-1.8172c0.0137,0.1238,0.0509,0.3123,0.0691,0.445
		c1-0.3759,1.806-0.6807,2.3715-0.9004c0.5327-0.2052,1.0194-0.4376,1.483-0.6807c3.6288-8.3629,10.828-13.5345,15.8201-15.4386
		c4.569-9.6518,5.285-19.5176,5.3214-26.4737c-2.1284-1.712-4.1913-3.5054-6.1557-5.4025
		c-15.033-14.5148-14.9029-51.1901-18.5317-48.5978c-4.4165,2.9678-7.9781-0.3703-10.5087-5.6073l-1.2097-0.2543
		c-0.422,39.6617,1.8451,89.1762-2.1867,108.4072c2.9908-1.1093,5.7073-2.1169,8.0528-2.9864
		C191.2988,328.4837,191.2423,328.1952,191.2207,328.0063z"/>
	<path id="XMLID_6643_" class="st2" d="M257.9821,407.2587c-0.0011-0.3123-0.0011-0.4866-0.0011-0.4866
		c0.0918-0.1524,0.2197-0.403,0.3323-0.6115c-0.2796,0.374-0.4521,0.6115-0.4521,0.6115s-0.1309-0.1197-0.335-0.3086
		C257.6751,406.723,257.8412,407.0118,257.9821,407.2587z"/>
	<path id="XMLID_6642_" class="st2" d="M214.2162,314.4139c0,0-5.6337,13.9393,3.1496,25.0685
		c7.6576,9.7027,19.4741,27.4012,25.1677,36.6467l0.0015-0.0019c0.2732,0.4246,0.5357,0.8785,0.8026,1.3179
		c0.1134,0.1885,0.2476,0.403,0.3539,0.5807c0.1758,0.2997,0.3513,0.5937,0.5246,0.8986c0.709,1.2108,1.1945,2.102,1.4231,2.6232
		c6.3434,12.2582,12.2221,25.2246,12.2221,25.2246s4.0125-12.9664,10.3559-25.2246c0.229-0.5212,0.7145-1.4123,1.4235-2.6232
		c0.1732-0.3048,0.3491-0.5989,0.5246-0.8986c0.1071-0.1777,0.2405-0.3922,0.3539-0.5807c0.2669-0.4394,0.529-0.8933,0.8023-1.3179
		l0.0019,0.0019c5.6935-9.2454,17.5101-26.944,25.1677-36.6467c8.7829-11.1292,3.1492-25.0685,3.1492-25.0685l-2.8198-5.0066
		c0.1989,0.0706,0.4275,0.187,0.6335,0.2669c-4.6225-9.728-5.3233-19.6864-5.3523-26.6644
		c-2.7046,2.1856-5.5047,4.2549-8.5063,6.014c-3.4273,2.0057-7.0557,3.6723-10.8388,4.8883
		c-3.4381,1.1056-6.9907,1.8298-10.583,2.1949c-4.4619,0.4498-9.0428,0.3138-13.4746-0.3885
		c-3.6377-0.5792-7.2092-1.5503-10.6384-2.8972c-3.8481-1.5123-7.5033-3.4838-10.9414-5.7761
		c-1.8153-1.2108-3.5496-2.538-5.2497-3.9046c-0.0364,6.9561-0.7525,16.822-5.3214,26.4737
		c0.1569-0.0602,0.335-0.1528,0.4885-0.2071L214.2162,314.4139z"/>
	<path id="XMLID_6641_" class="st3" d="M252.0889,502.6032c-5.317-7.6223-14.7438-27.4433-32.3052-79.0434
		c-5.2497-15.4264-10.3161-31.0263-14.6973-45.1058c-2.9355,2.0313-5.4051,3.8719-7.823,4.2024
		c-4.6322,0.6335-3.4797-18.6518-1.2941-34.8655c-2.4949-8.9565-4.1478-15.6747-4.6396-19.0912
		c-2.3455,0.8695-5.0619,1.877-8.0528,2.9864c-19.2533,7.1446-49.5908,18.4555-62.03,24.0067
		c10.8882,0.7878,20.2801,25.5625,25.7413,39.665c4.7523,12.2749,6.339,59.8329,6.7312,88.4193
		c25.2681,11.36,52.7522,18.6354,81.6409,21.0099v-2.1837H252.0889z"/>
	<path id="XMLID_6640_" class="st3" d="M257.5264,406.4635c-1.238-1.1491-6.1482-5.8252-14.0835-14.8505
		c-6.9788-7.9364-11.0042-10.2507-11.0042-10.2507s-4.8694-0.6773,0.4766-3.1879l3.4407-1.5592
		c-12.0214-6.2081-20.0121-4.5326-26.0388-1.3885c15.1572,48.4509,38.6167,115.2161,46.7936,124.7786
		c0.3123-0.3647,0.6606-0.8658,1.0164-1.3941c-0.0543-45.8839-0.136-86.553-0.145-91.3525
		C257.8412,407.0118,257.6751,406.723,257.5264,406.4635z"/>
	<path id="XMLID_6639_" class="st3" d="M198.2946,333.5992c0.4301-2.1347,0.8424-3.9229,1.2071-5.208
		c0.3331-1.1707,0.7625-2.2708,1.2261-3.3381c-0.4636,0.2431-0.9502,0.4755-1.483,0.6807
		c-0.5655,0.2197-1.3714,0.5246-2.3715,0.9004C197.0875,328.2405,197.5775,330.6094,198.2946,333.5992z"/>
	<path id="XMLID_6638_" class="st4" d="M392.6069,355.6474c-12.4954-5.562-42.6823-16.8186-61.8839-23.9435
		c-2.8983-1.0763-5.5475-2.0584-7.8457-2.9117c-0.5246,3.5582-2.2626,10.5667-4.872,19.8827
		c2.1075,16.0216,3.1366,34.6042-1.4123,33.9815c-2.3325-0.3175-4.7214-2.0495-7.5223-3.9954
		c-4.3675,14.0267-9.4086,29.5486-14.633,44.8987c-17.5625,51.6001-26.9875,71.4211-32.3052,79.0434h19.5288v1.8153
		c27.3622-2.7812,53.3839-10.0384,77.4132-20.9211c0.3985-28.614,1.9897-75.9031,6.7274-88.1397
		C371.4402,380.7957,381.2659,354.8068,392.6069,355.6474z"/>
	<path id="XMLID_6637_" class="st4" d="M315.7272,334.4379c0.8212-3.353,1.3633-5.9486,1.6045-7.7093
		c-1.1153-0.4175-2.0131-0.7569-2.6239-0.9948c-0.5736-0.2216-1.1045-0.4684-1.5993-0.7335
		c0.4729,1.0837,0.9078,2.202,1.2462,3.3909C314.7658,329.8399,315.2379,331.9329,315.7272,334.4379z"/>
	<path id="XMLID_6636_" class="st4" d="M257.9821,407.2587c0.0089,4.7995,0.0907,45.4687,0.145,91.3525
		c8.9458-13.282,31.1453-76.6344,45.7244-123.2194c-6.0609-3.2492-14.1196-5.0935-26.351,1.2235l3.4418,1.5592
		c5.3448,2.5105,1.2406,2.8484,1.2406,2.8484s-4.7902,2.6537-11.769,10.5901c-7.4145,8.432-10.9678,13.0352-12.1006,14.5475
		c-0.1126,0.2086-0.2405,0.4591-0.3323,0.6115C257.981,406.772,257.981,406.9464,257.9821,407.2587z"/>
	<path id="XMLID_6635_" class="st5" d="M197.1819,229.1404c3.6288-2.5923,3.4987,34.083,18.5317,48.5978
		c1.9644,1.8971,4.0273,3.6905,6.1557,5.4025c1.7001,1.3666,3.4344,2.6938,5.2497,3.9046
		c3.4381,2.2923,7.0933,4.2638,10.9414,5.7761c3.4292,1.3469,7.0007,2.3179,10.6384,2.8972
		c4.4318,0.7023,9.0127,0.8383,13.4746,0.3885c3.5923-0.3651,7.1449-1.0893,10.583-2.1949
		c3.7831-1.2161,7.4115-2.8827,10.8388-4.8883c3.0016-1.7592,5.8018-3.8284,8.5063-6.014c0.9168-0.7405,1.8651-1.4432,2.7499-2.222
		c1.1265-0.9893,2.2284-2.0075,3.3076-3.0496c15.0331-14.5148,14.9033-51.1901,18.5321-48.5978
		c4.4091,2.9607,7.965-0.3576,10.4949-5.5783c2.2291-4.5998,3.6641-10.6737,4.1496-15.2881
		c0.7298-6.929-1.2934-10.9533-3.992-11.3347c-0.0669,0.1019-0.1342,0.2599-0.2004,0.2781
		c-6.1739,1.7986-7.4171,7.8888-9.0253,6.5929c-3.6381-2.9317-29.4363-11.5195-49.7201-22.1824
		c-24.1201-12.6798-29.124-16.5662-42.8607-18.1217l-16.5398,14.4349c-13.7371,11.4035-15.2074,26.1852-16.7312,23.168
		c-1.8852-3.7284-3.6452-2.7864-4.9292-4.202c-3.0923-0.3978-5.601,3.7537-4.7995,11.3671
		c0.4844,4.605,1.9142,10.6607,4.1359,15.2591C189.2039,228.7702,192.7654,232.1082,197.1819,229.1404z"/>
	<path id="XMLID_6634_" class="st1" d="M192.2661,201.109c1.5239,3.0172,2.9942-11.7645,16.7312-23.168l16.5398-14.4349
		c13.7367,1.5555,18.7406,5.4419,42.8607,18.1217c20.2838,10.6629,46.082,19.2507,49.7201,22.1824
		c1.6082,1.296,2.8514-4.7943,9.0253-6.5929c0.0662-0.0182,0.1335-0.1762,0.2004-0.2781
		c1.819-2.8116,3.6533-35.8147-10.1462-58.8142c-16.5424-27.5663-63.191-38.8791-95.849-20.476
		c-3.1451,1.7718-0.7863,2.8139-8.864,4.9303c-16.7967,4.4002-27.2172,30.8393-27.2172,56.4981
		c0,12.743,0.8034,16.4335,2.0696,17.8295C188.621,198.3227,190.3809,197.3806,192.2661,201.109z"/>
	<path id="XMLID_6633_" class="st6" d="M196.8734,326.6342c-0.0182-0.1327-0.0554-0.3212-0.0691-0.445l-5.5835,1.8172
		c0.0216,0.1889,0.0781,0.4774,0.1089,0.6934c0.4919,3.4165,2.1447,10.1347,4.6396,19.0912
		c0.7209-5.3404,1.551-10.3414,2.3254-14.1917C197.5775,330.6094,197.0875,328.2405,196.8734,326.6342z"/>
	<path id="XMLID_6632_" class="st6" d="M317.4161,326.1891c-0.0171,0.1491-0.0617,0.374-0.0844,0.5394
		c-0.2413,1.7607-0.7833,4.3563-1.6045,7.7093c0.7695,3.9481,1.5811,8.9472,2.2782,14.2371
		c2.6094-9.316,4.3474-16.3245,4.872-19.8827c0.0364-0.2487,0.0989-0.5699,0.1234-0.7859L317.4161,326.1891z"/>
	<path id="XMLID_6631_" class="st6" d="M258.1271,498.6112c-0.3558,0.5283-0.7041,1.0294-1.0164,1.3941
		c-8.177-9.5625-31.6364-76.3277-46.7936-124.7786c-1.9168,0.9982-3.6507,2.1328-5.2307,3.2273
		c4.3812,14.0795,9.4476,29.6794,14.6973,45.1058c17.5614,51.6001,26.9882,71.4211,32.3052,79.0434h10.0436
		c5.3177-7.6223,14.7427-27.4433,32.3052-79.0434c5.2244-15.3502,10.2655-30.8721,14.633-44.8987
		c-1.5793-1.0963-3.3039-2.2436-5.2192-3.2693C289.2724,421.9768,267.0729,485.3292,258.1271,498.6112z"/>
	<path id="XMLID_6630_" class="st7" d="M236.3559,376.6153l-3.4407,1.5592c-5.346,2.5105-0.4766,3.1879-0.4766,3.1879
		s4.0255,2.3142,11.0042,10.2507c7.9353,9.0253,12.8456,13.7014,14.0835,14.8505c0.2041,0.1889,0.335,0.3086,0.335,0.3086
		s-5.8787-12.9664-12.2221-25.2246c-0.2286-0.5212-0.7142-1.4123-1.4231-2.6232c-0.1732-0.3048-0.3487-0.5989-0.5246-0.8986
		c-0.1063-0.1777-0.2405-0.3922-0.3539-0.5807c-0.2669-0.4394-0.5294-0.8933-0.8026-1.3179l-0.0015,0.0019
		c-5.6936-9.2454-17.5101-26.944-25.1677-36.6467c-8.7833-11.1292-3.1496-25.0685-3.1496-25.0685l2.8202-5.0066
		c-0.1535,0.0543-0.3316,0.1469-0.4885,0.2071c-4.9921,1.9042-12.1913,7.0758-15.8201,15.4386
		c-0.4636,1.0673-0.893,2.1674-1.2261,3.3381c-0.3647,1.2852-0.777,3.0734-1.2071,5.208
		c-0.7744,3.8504-1.6045,8.8513-2.3254,14.1917c-2.1856,16.2137-3.3381,35.499,1.2941,34.8655
		c2.418-0.3305,4.8876-2.1711,7.823-4.2024c1.58-1.0945,3.3139-2.2291,5.2307-3.2273
		C216.3438,372.0827,224.3345,370.4072,236.3559,376.6153z"/>
	<path id="XMLID_6629_" class="st7" d="M314.3546,328.3911c-0.3383-1.1889-0.7733-2.3072-1.2462-3.3909
		c-3.6013-8.2539-10.6789-13.3802-15.6546-15.326c-0.206-0.0799-0.4346-0.1963-0.6335-0.2669l2.8198,5.0066
		c0,0,5.6337,13.9393-3.1492,25.0685c-7.6576,9.7027-19.4742,27.4012-25.1677,36.6467l-0.0019-0.0019
		c-0.2733,0.4246-0.5353,0.8785-0.8023,1.3179c-0.1134,0.1885-0.2469,0.403-0.3539,0.5807
		c-0.1755,0.2997-0.3513,0.5937-0.5246,0.8986c-0.709,1.2108-1.1945,2.102-1.4235,2.6232
		c-6.3434,12.2582-10.3559,25.2246-10.3559,25.2246s0.1725-0.2375,0.4521-0.6115c1.1328-1.5123,4.6861-6.1155,12.1006-14.5475
		c6.9788-7.9364,11.769-10.5901,11.769-10.5901s4.1043-0.3379-1.2406-2.8484l-3.4418-1.5592
		c12.2314-6.317,20.2902-4.4727,26.351-1.2235c1.9153,1.0257,3.6399,2.173,5.2192,3.2693c2.8009,1.9458,5.1898,3.6779,7.5223,3.9954
		c4.5489,0.6227,3.5198-17.9599,1.4123-33.9815c-0.6971-5.2898-1.5086-10.2889-2.2782-14.2371
		C315.2379,331.9329,314.7658,329.8399,314.3546,328.3911z"/>
	<path id="XMLID_6628_" class="st7" d="M262.1325,502.6032h-10.0436h-16.7287v2.1837c5.4813,0.4502,11.0087,0.7279,16.584,0.8186
		h0.6301h1.9596h1.5547h2.0458h0.0007h1.5521h0.5454c7.2159-0.1179,14.3743-0.4703,21.4285-1.187v-1.8153H262.1325z"/>
	<path id="XMLID_6627_" class="st8" d="M121.2469,355.6927c-1.0246-0.0744-2.0574-0.0127-3.1068,0.3684
		c-8.9272,3.2422-18.0064,28.8697-22.6152,57.0788c-1.1699,7.165-2.9407,18.1072-4.8121,29.9791
		c18.7206,16.5331,39.932,30.2839,63.0066,40.658c-0.3922-28.5864-1.9789-76.1444-6.7312-88.4193
		C141.527,381.2552,132.1351,356.4805,121.2469,355.6927z"/>
	<path id="XMLID_6626_" class="st8" d="M422.0031,442.6525c-1.8443-11.692-3.5834-22.4419-4.7378-29.5125
		c-4.6099-28.2091-13.6887-53.8367-22.6155-57.0788c-0.6859-0.2506-1.3658-0.3632-2.0428-0.4138
		c-11.341-0.8405-21.1667,25.1484-26.8049,39.7104c-4.7378,12.2366-6.3289,59.5258-6.7274,88.1397
		C382.1292,473.058,403.3186,459.2477,422.0031,442.6525z"/>
</g>
</svg>
